<?xml version="1.0" standalone="no"?>
<!DOCTYPE svg PUBLIC "-//W3C//DTD SVG 20010904//EN"
 "http://www.w3.org/TR/2001/REC-SVG-20010904/DTD/svg10.dtd">
<svg version="1.0" xmlns="http://www.w3.org/2000/svg"
 width="512.000000pt" height="512.000000pt" viewBox="0 0 512.000000 512.000000"
 preserveAspectRatio="xMidYMid meet">

<g transform="translate(0.000000,512.000000) scale(0.100000,-0.100000)"
fill="#000000" stroke="none">
<path d="M0 2560 l0 -2560 2560 0 2560 0 0 2560 0 2560 -2560 0 -2560 0 0
-2560z m4995 0 l0 -2435 -2435 0 -2435 0 -3 2425 c-1 1334 0 2431 3 2438 3 10
496 12 2437 10 l2433 -3 0 -2435z"/>
<path d="M242 4858 c-17 -17 -17 -4579 0 -4596 17 -17 4619 -17 4636 0 17 17
17 4579 0 4596 -17 17 -4619 17 -4636 0z m1096 -480 c16 -16 17 -604 2 -613
-13 -8 -618 -8 -630 0 -6 4 -10 126 -10 305 0 274 1 300 18 309 26 16 605 14
620 -1z m770 0 c16 -16 17 -604 2 -613 -13 -8 -618 -8 -630 0 -6 4 -10 124
-10 300 0 254 2 296 16 309 13 14 56 16 313 16 218 0 300 -3 309 -12z m770 0
c16 -16 17 -604 2 -613 -13 -8 -618 -8 -630 0 -6 4 -10 126 -10 305 0 274 1
300 18 309 26 16 605 14 620 -1z m770 0 c16 -16 17 -604 2 -613 -13 -8 -618
-8 -630 0 -15 10 -13 598 2 613 17 17 609 17 626 0z m770 0 c15 -15 17 -604 2
-613 -13 -8 -617 -8 -630 0 -15 9 -13 598 2 613 17 17 609 17 626 0z m-3070
-1057 c2 -216 -1 -308 -9 -317 -9 -11 -69 -14 -306 -14 -184 0 -302 4 -314 10
-18 10 -19 24 -19 305 0 161 3 301 6 309 6 15 41 16 323 14 l316 -3 3 -304z
m3076 293 c3 -9 6 -147 6 -308 0 -214 -3 -295 -12 -304 -9 -9 -90 -12 -302
-12 -160 0 -301 3 -313 6 l-23 6 0 307 c0 169 3 311 7 314 3 4 147 7 319 7
275 0 313 -2 318 -16z m-3079 -1059 l0 -310 -309 -3 c-219 -2 -313 1 -322 9
-11 9 -14 69 -14 309 0 163 3 300 7 303 4 4 149 6 322 5 l316 -3 0 -310z m773
20 c1 -159 0 -300 -3 -312 l-5 -23 -308 0 c-226 0 -311 3 -320 12 -9 9 -12 89
-12 299 0 158 3 295 6 303 6 15 41 16 323 14 l316 -3 3 -290z m1540 0 c1 -159
0 -300 -3 -313 l-5 -22 -318 2 -317 3 -3 300 c-1 165 0 306 3 313 3 10 72 12
322 10 l318 -3 3 -290z m770 0 c1 -159 0 -300 -3 -313 l-5 -22 -318 2 -317 3
-3 300 c-1 165 0 306 3 313 3 10 72 12 322 10 l318 -3 3 -290z m-3087 -472 c5
-5 8 -146 7 -314 l-3 -304 -309 -3 c-219 -2 -313 1 -322 9 -11 9 -14 68 -14
303 0 160 4 296 8 302 4 6 13 13 20 15 25 8 605 0 613 -8z m770 0 c5 -5 8
-146 7 -314 l-3 -304 -309 -3 c-219 -2 -313 1 -322 9 -11 9 -14 68 -14 303 0
160 4 296 8 302 4 6 13 13 20 15 25 8 605 0 613 -8z m1540 0 c5 -5 8 -146 7
-314 l-3 -304 -300 -3 c-165 -1 -310 0 -322 3 l-23 5 0 306 c0 292 1 305 19
312 28 10 612 5 622 -5z m770 -5 c11 -17 11 -589 1 -606 -7 -9 -78 -12 -323
-10 l-314 3 -3 308 c-2 298 -2 308 17 315 11 4 154 6 317 5 235 -1 299 -4 305
-15z m-3073 -1042 c2 -212 -1 -303 -9 -312 -9 -11 -69 -14 -306 -14 -184 0
-302 4 -314 10 -18 10 -19 24 -19 300 0 158 3 296 6 304 6 15 41 16 323 14
l316 -3 3 -299z m770 0 c2 -212 -1 -303 -9 -312 -9 -11 -69 -14 -310 -14 -257
0 -300 2 -313 16 -14 13 -16 55 -16 303 0 212 3 290 12 299 9 9 90 12 323 10
l310 -3 3 -299z m770 0 c2 -212 -1 -303 -9 -312 -9 -11 -69 -14 -306 -14 -184
0 -302 4 -314 10 -18 10 -19 24 -19 309 0 164 3 301 7 304 4 4 149 6 322 5
l316 -3 3 -299z m770 0 c2 -212 -1 -303 -9 -312 -16 -19 -608 -21 -627 -2 -9
9 -12 91 -12 308 0 163 3 300 7 303 4 4 149 6 322 5 l316 -3 3 -299z m770 0
c2 -212 -1 -303 -9 -312 -16 -19 -608 -21 -627 -2 -9 9 -12 91 -12 308 0 163
3 300 7 303 4 4 149 6 322 5 l316 -3 3 -299z"/>
</g>
</svg>
